<svg xmlns="http://www.w3.org/2000/svg" xmlns:xlink="http://www.w3.org/1999/xlink" viewBox="0 0 188 186.22629"><defs><style>.cls-1{fill:none;clip-rule:evenodd;}.cls-2{isolation:isolate;}.cls-3{stroke:#f9c626;stroke-miterlimit:10;fill-rule:evenodd;fill:url(#Безымянный_градиент_8);}.cls-4{clip-path:url(#clip-path);}.cls-5{fill:#fff;}.cls-6{font-size:18px;fill:#f9c626;font-family:Montserrat-Medium, Montserrat;}.cls-7{letter-spacing:-0.00701em;}.cls-8{letter-spacing:-0.00995em;}.cls-9{opacity:0.18;mix-blend-mode:multiply;fill:url(#Degradado_sin_nombre_21);}</style><linearGradient id="Безымянный_градиент_8" x1="8.20194" y1="180.4177" x2="180.97517" y2="7.64446" gradientUnits="userSpaceOnUse"><stop offset="0" stop-color="#ff9702"/><stop offset="0.59886" stop-color="#ffc101"/><stop offset="1" stop-color="#ffd900"/></linearGradient><clipPath id="clip-path" transform="translate(-0.2943)"><path class="cls-1" d="M168.159,2.33585H21.018A18.12478,18.12478,0,0,0,2.8933,20.46072V167.60158A18.12474,18.12474,0,0,0,21.018,185.72629H168.159a18.12487,18.12487,0,0,0,18.12487-18.12471V20.46072A18.12491,18.12491,0,0,0,168.159,2.33585Z"/></clipPath><linearGradient id="Degradado_sin_nombre_21" x1="94.0607" y1="92.22956" x2="94.0607" y2="55.94589" gradientTransform="translate(188.1214 148.17545) rotate(-180)" gradientUnits="userSpaceOnUse"><stop offset="0" stop-opacity="0"/><stop offset="1"/></linearGradient></defs><title>ic2</title><g class="cls-2"><g id="Слой_1" data-name="Слой 1"><path class="cls-3" d="M168.159,2.33585H21.018A18.12478,18.12478,0,0,0,2.8933,20.46072V167.60158A18.12474,18.12474,0,0,0,21.018,185.72629H168.159a18.12487,18.12487,0,0,0,18.12487-18.12471V20.46072A18.12491,18.12491,0,0,0,168.159,2.33585Z" transform="translate(-0.2943)"/><g class="cls-4"><rect class="cls-5" width="188" height="55.40947"/></g><text class="cls-6" transform="translate(50.6967 33.0749) scale(0.9437 1)">По<tspan class="cls-7" x="26.31658" y="0">с</tspan><tspan x="36.4682" y="0">тав</tspan><tspan class="cls-8" x="66.99548" y="0">к</tspan><tspan x="77.58068" y="0">а</tspan></text><rect class="cls-9" x="2.30471" y="55.94589" width="183.51198" height="36.28367" transform="translate(187.8271 148.17545) rotate(180)"/><path class="cls-5" d="M57.15961,127.75208v1.772a1.77379,1.77379,0,0,0,1.772,1.772h3.544a5.32249,5.32249,0,0,1,5.316,5.316v5.316h-5.316v3.544h-3.544v-3.544a5.32248,5.32248,0,0,1-5.316-5.316h3.544a1.77379,1.77379,0,0,0,1.772,1.772h5.316v-1.772a1.77378,1.77378,0,0,0-1.772-1.772h-3.544a5.32248,5.32248,0,0,1-5.316-5.316v-5.316h5.316v-3.544h3.544v3.544a5.32248,5.32248,0,0,1,5.316,5.316h-3.544a1.77378,1.77378,0,0,0-1.772-1.772Zm55.81793,0,6.202,8.26991v9.45007h-28.352v-17.72Zm2.658,9.45006-4.43-5.90607h-16.834v10.632h21.264Zm24.23562-66.154L147.5315,90.1999v3.88422a5.30876,5.30876,0,0,1-3.544,4.98994v57.03h-17.72v1.772a5.32248,5.32248,0,0,1-5.316,5.316h-.179a8.86,8.86,0,1,1-17.362,0H64.06863a8.86,8.86,0,1,1-17.362,0h-3.723a5.32248,5.32248,0,0,1-5.316-5.316v-3.544a5.32248,5.32248,0,0,1,5.316-5.316h6.54753a19.476,19.476,0,1,1,27.12043-27.12043V99.07229a5.30878,5.30878,0,0,1-3.544-4.98995V90.19812l7.66035-19.15h4.74364v-1.772a5.32248,5.32248,0,0,1,5.316-5.316h38.984a5.32249,5.32249,0,0,1,5.316,5.316v1.772Zm-4.74364,3.544v1.772a5.32248,5.32248,0,0,1-5.316,5.316h-1.74365l1.39456,7.088h13.67983l-5.67039-14.176Zm-8.86,17.72h-14.176v1.772a1.77379,1.77379,0,0,0,1.772,1.772h10.632a1.77379,1.77379,0,0,0,1.772-1.772Zm-17.72,0h-14.176v1.772a1.77378,1.77378,0,0,0,1.772,1.772h10.632a1.77379,1.77379,0,0,0,1.772-1.772Zm-19.492,3.544a1.77378,1.77378,0,0,0,1.772-1.772v-1.772h-14.176v1.772a1.77378,1.77378,0,0,0,1.772,1.772Zm7.12343-14.176-1.41759,7.088h13.78614v-7.088Zm15.91254,0v7.088h13.78615l-1.4176-7.088Zm-23.036-5.316a1.77379,1.77379,0,0,0,1.772,1.772h38.984a1.77379,1.77379,0,0,0,1.772-1.772v-7.088a1.77379,1.77379,0,0,0-1.772-1.772h-38.984a1.77379,1.77379,0,0,0-1.772,1.772Zm-11.55874,12.404h13.6497l1.4176-7.088H90.82757a5.32248,5.32248,0,0,1-5.316-5.316v-1.772H83.16722ZM60.70361,149.01605a15.948,15.948,0,1,0-15.948-15.948A15.96631,15.96631,0,0,0,60.70361,149.01605Zm15.948,0v-4.77553a19.65424,19.65424,0,0,1-4.77554,4.77553Zm-15.948,15.948a5.316,5.316,0,1,0-5.316,5.316A5.32248,5.32248,0,0,0,60.70361,164.964Zm1.72592-5.316H83.73958v-7.088h-40.756a1.77379,1.77379,0,0,0-1.772,1.772v3.544a1.77379,1.77379,0,0,0,1.772,1.772h5.36206a8.76814,8.76814,0,0,1,14.08384,0Zm54.978,5.316a5.316,5.316,0,1,0-5.316,5.316A5.32248,5.32248,0,0,0,117.40754,164.964Zm5.316-29.55692-7.469-10.45834a1.78073,1.78073,0,0,0-1.4424-.74069H89.05557a1.77379,1.77379,0,0,0-1.772,1.772v33.668h17.76606a8.76813,8.76813,0,0,1,14.08383,0h1.81807a1.77379,1.77379,0,0,0,1.772-1.772Zm3.544-1.13408v18.287h7.088v-33.668a5.32249,5.32249,0,0,0-5.316-5.316h-14.176a5.32248,5.32248,0,0,0-5.316,5.316v1.772h5.26461a5.3288,5.3288,0,0,1,4.32545,2.22385Zm14.176,18.287V99.40011h-8.86a5.28177,5.28177,0,0,1-3.544-1.38216,5.27316,5.27316,0,0,1-3.544,1.38216h-10.632a5.28173,5.28173,0,0,1-3.544-1.38216,5.27321,5.27321,0,0,1-3.544,1.38216h-10.632a5.28173,5.28173,0,0,1-3.544-1.38216,5.27319,5.27319,0,0,1-3.544,1.38216h-8.86v49.61594h3.544v-23.036a5.32248,5.32248,0,0,1,5.316-5.316h15.948v-1.772a8.87,8.87,0,0,1,8.86-8.86h14.176a8.87,8.87,0,0,1,8.86,8.86v33.668Zm3.544-58.47593v-1.772h-14.176v1.772a1.77379,1.77379,0,0,0,1.772,1.772h10.632A1.77379,1.77379,0,0,0,143.98751,94.08412Zm-47.84395-23.036h-3.544v3.544h3.544Zm24.808,0h-21.264v3.544h21.264Zm7.088,0h-3.544v3.544h3.544Zm-44.29994,31.896h17.72v14.176h-17.72Zm3.544,10.632h10.632v-7.088h-10.632Z" transform="translate(-0.2943)"/></g></g></svg>