<svg xmlns="http://www.w3.org/2000/svg" xmlns:xlink="http://www.w3.org/1999/xlink" viewBox="0 0 188 186.19522"><defs><style>.cls-1{fill:none;clip-rule:evenodd;}.cls-2{isolation:isolate;}.cls-3{stroke:#ac57dd;stroke-miterlimit:10;fill-rule:evenodd;fill:url(#Безымянный_градиент_31);}.cls-4{clip-path:url(#clip-path);}.cls-5{fill:#fff;}.cls-6{font-size:18px;fill:#ac57dd;font-family:Montserrat-Medium, Montserrat;}.cls-7{opacity:0.2;mix-blend-mode:multiply;fill:url(#Degradado_sin_nombre_21);}</style><linearGradient id="Безымянный_градиент_31" x1="7.578" y1="180.38663" x2="180.35124" y2="7.61339" gradientUnits="userSpaceOnUse"><stop offset="0" stop-color="#8a61b5"/><stop offset="0.99482" stop-color="#d615ff"/></linearGradient><clipPath id="clip-path"><path class="cls-1" d="M167.53509,2.30478H20.39408A18.12477,18.12477,0,0,0,2.26937,20.42965V167.5705a18.12474,18.12474,0,0,0,18.12471,18.12472h147.141A18.12487,18.12487,0,0,0,185.66,167.5705V20.42965A18.1249,18.1249,0,0,0,167.53509,2.30478Z"/></clipPath><linearGradient id="Degradado_sin_nombre_21" x1="93.43676" y1="92.19849" x2="93.43676" y2="55.91482" gradientTransform="translate(186.87353 148.11331) rotate(-180)" gradientUnits="userSpaceOnUse"><stop offset="0" stop-opacity="0"/><stop offset="1"/></linearGradient></defs><title>ic4</title><g class="cls-2"><g id="Слой_1" data-name="Слой 1"><path class="cls-3" d="M167.53509,2.30478H20.39408A18.12477,18.12477,0,0,0,2.26937,20.42965V167.5705a18.12474,18.12474,0,0,0,18.12471,18.12472h147.141A18.12487,18.12487,0,0,0,185.66,167.5705V20.42965A18.1249,18.1249,0,0,0,167.53509,2.30478Z"/><g class="cls-4"><rect class="cls-5" width="188" height="55.3784"/></g><text class="cls-6" transform="translate(57.93493 33.04382) scale(0.9437 1)">Аренда</text><rect class="cls-7" x="1.68077" y="55.91482" width="183.51198" height="36.28367" transform="translate(186.87353 148.11331) rotate(180)"/><path class="cls-5" d="M78.37085,113.2182v-7.22577a12.64816,12.64816,0,0,0-6.39842-10.98137,13.93168,13.93168,0,0,0,9.70783-6.08229,1.80514,1.80514,0,0,0-1.503-2.80721A5.42594,5.42594,0,0,1,74.758,80.70223V78.89579a14.45155,14.45155,0,1,0-28.90309,0v1.80644a5.42594,5.42594,0,0,1-5.41933,5.41933,1.80514,1.80514,0,0,0-1.503,2.80721,13.94356,13.94356,0,0,0,9.70783,6.08229A12.64815,12.64815,0,0,0,42.242,105.99243v7.22577a1.806,1.806,0,0,0,1.80644,1.80645h32.516A1.806,1.806,0,0,0,78.37085,113.2182ZM67.5322,86.12156a7.22578,7.22578,0,0,1-14.45155,0V82.50867a9.026,9.026,0,0,0,7.22577-3.6183,9.026,9.026,0,0,0,7.22578,3.6183ZM54.8871,96.96022H65.72575l-2.00334,2.66992-2.14064-2.14063a1.80332,1.80332,0,0,0-2.5525,0l-2.14064,2.14063Zm-5.41933-16.258V78.89579a10.83866,10.83866,0,1,1,21.67731,0v1.80644a9.04521,9.04521,0,0,0,5.62707,8.36564,10.33976,10.33976,0,0,1-6.72,2.473h-.37212a10.77966,10.77966,0,0,0,1.465-5.41933V80.70223a1.806,1.806,0,0,0-1.80645-1.80644H67.5322a5.42594,5.42594,0,0,1-5.41933-5.41933,1.80644,1.80644,0,1,0-3.61288,0,5.426,5.426,0,0,1-5.41933,5.41933H51.27421a1.806,1.806,0,0,0-1.80644,1.80644v5.41933a10.76286,10.76286,0,0,0,1.46683,5.41933h-.37393a10.34449,10.34449,0,0,1-6.72177-2.473,9.04409,9.04409,0,0,0,5.62887-8.36564ZM74.758,111.41176H71.14508V104.186H67.5322v7.22577H53.08065V104.186H49.46777v7.22577H45.85488v-5.41933a9.0202,9.0202,0,0,1,5.1863-8.13983l4.20721,5.61081a1.802,1.802,0,0,0,1.31689.71716,1.77215,1.77215,0,0,0,1.40542-.52388l2.33573-2.33572,2.33573,2.33572a1.80035,1.80035,0,0,0,1.27715.52929c.04155,0,.0849-.0018.12826-.00542a1.808,1.808,0,0,0,1.3169-.71716l4.2072-5.61081a9.0202,9.0202,0,0,1,5.1863,8.13983Z"/><path class="cls-5" d="M140.4041,155.00484a10.8424,10.8424,0,0,0,2.36644-3.85134h2.4387a5.40619,5.40619,0,0,0,1.80644-10.50627v-5.75171a9.04246,9.04246,0,0,0-9.03221-9.03222h-3.61289V113.2182a1.806,1.806,0,0,0-1.80644-1.80644H110.88682a1.80167,1.80167,0,0,0-1.27715.52929L91.54524,130.00547a1.79857,1.79857,0,0,0-.52929,1.27716v28.90309a1.806,1.806,0,0,0,1.80645,1.80644h22.91473a12.56443,12.56443,0,0,0-1.23742,5.41933v7.22577a1.806,1.806,0,0,0,1.80644,1.80644h32.516a1.806,1.806,0,0,0,1.80645-1.80644v-7.22577A12.663,12.663,0,0,0,140.4041,155.00484Zm-18.67862-7.46422H119.919a1.80645,1.80645,0,1,1,0-3.61289h1.80644Zm3.61289-5.42475a9.0835,9.0835,0,0,0,2.26347-2.47663,16.89625,16.89625,0,0,0,10.38163,4.2885h1.80644v3.61288a7.22577,7.22577,0,1,1-14.45154,0Zm1.80644,16.2634h10.83866l-2.00335,2.66993-2.14064-2.14064a1.80333,1.80333,0,0,0-2.55251,0l-2.14063,2.14064Zm18.06443-10.83865h-1.80645v-3.61289h1.80645a1.80645,1.80645,0,0,1,0,3.61289Zm-1.80645-12.6451v5.41932h-5.41932c-3.56592,0-9.03222-2.90656-9.03222-5.41932a1.80644,1.80644,0,1,0-3.61288,0,5.42978,5.42978,0,0,1-3.61289,5.11042v-5.11042a5.42594,5.42594,0,0,1,5.41933-5.41933h10.83866A5.42594,5.42594,0,0,1,143.40279,134.89552ZM109.08038,117.579v11.89724H97.18315ZM94.62884,133.08907h16.258a1.80594,1.80594,0,0,0,1.80645-1.80644v-16.258h18.06442V125.8633h-3.61288a9.04247,9.04247,0,0,0-9.03222,9.03222v5.75171A5.40619,5.40619,0,0,0,119.919,151.1535h2.43869a10.84242,10.84242,0,0,0,2.36645,3.85134,12.627,12.627,0,0,0-6.41288,3.37443H94.62884Zm52.38684,39.74175h-3.61289V165.605h-3.61288v7.22578H125.33837V165.605h-3.61289v7.22578h-3.61289v-5.41933a9.02024,9.02024,0,0,1,5.1863-8.13984l4.2072,5.61081a1.80768,1.80768,0,0,0,2.72231.19329l2.33573-2.33573,2.33573,2.33573a1.80037,1.80037,0,0,0,1.27716.52929c.04154,0,.0849-.00181.12825-.00542a1.808,1.808,0,0,0,1.3169-.71716l4.2072-5.61081a9.02024,9.02024,0,0,1,5.1863,8.13984Z"/><path class="cls-5" d="M96.43528,134.89552h3.61289v3.61288H96.43528Z"/><path class="cls-5" d="M101.85461,134.89552h10.83866v3.61288H101.85461Z"/><path class="cls-5" d="M96.43528,140.31484h3.61289v3.61289H96.43528Z"/><path class="cls-5" d="M101.85461,140.31484h10.83866v3.61289H101.85461Z"/><path class="cls-5" d="M96.43528,145.73417h3.61289v3.61289H96.43528Z"/><path class="cls-5" d="M101.85461,145.73417h10.83866v3.61289H101.85461Z"/><path class="cls-5" d="M94.62884,109.60532A1.80146,1.80146,0,0,0,95.906,109.076l3.61289-3.61289a1.79853,1.79853,0,0,0,.52929-1.27715V88.50426a12.6451,12.6451,0,1,0-10.83866,0v4.84307a1.79856,1.79856,0,0,0,.52929,1.27716l.52928.52928-.52928.52929a1.80442,1.80442,0,0,0,0,2.55431l.52928.52929-.52928.52928a1.79856,1.79856,0,0,0-.52929,1.27716V104.186a1.79854,1.79854,0,0,0,.52929,1.27716l3.61288,3.61289a1.80153,1.80153,0,0,0,1.27716.52928ZM94.09955,97.4895l-.52928-.52928.52928-.52929a1.80442,1.80442,0,0,0,0-2.55431L92.8224,92.59946v-5.3019a1.80144,1.80144,0,0,0-1.2049-1.70167,9.03223,9.03223,0,1,1,6.02268,0,1.80491,1.80491,0,0,0-1.2049,1.70167v16.14057l-1.80644,1.80644-1.80644-1.80644V101.321l1.27715-1.27716A1.80442,1.80442,0,0,0,94.09955,97.4895Z"/><path class="cls-5" d="M92.8224,69.86357h3.61288v3.61289H92.8224Z"/><path class="cls-5" d="M60.30642,122.99829l4.14218,4.14217,2.55431-2.55431-7.22577-7.22578a1.80442,1.80442,0,0,0-2.55431,0l-7.22577,7.22578,2.55431,2.55431,4.14217-4.14217v33.57454A1.80594,1.80594,0,0,0,58.5,158.37927H87.40307v-3.61288H60.30642Z"/><path class="cls-5" d="M128.95125,103.43812,124.80908,99.296l-2.55431,2.55431,7.22577,7.22577a1.80551,1.80551,0,0,0,2.55431,0l7.22577-7.22577L136.70631,99.296l-4.14217,4.14217v-19.123a1.806,1.806,0,0,0-1.80645-1.80645H110.88682v3.61289h18.06443Z"/></g></g></svg>